<?xml version="1.0" encoding="utf-8"?>
<!-- Generator: Adobe Illustrator 15.0.0, SVG Export Plug-In . SVG Version: 6.00 Build 0)  -->
<!DOCTYPE svg PUBLIC "-//W3C//DTD SVG 1.1//EN" "http://www.w3.org/Graphics/SVG/1.1/DTD/svg11.dtd">
<svg version="1.1" id="Ebene_1" xmlns="http://www.w3.org/2000/svg" xmlns:xlink="http://www.w3.org/1999/xlink" x="0px" y="0px"
	 width="145px" height="87.711px" viewBox="0 0 145 87.711" enable-background="new 0 0 145 87.711" xml:space="preserve">
<g>
	<g>
		<path fill="#005092" d="M35.53,39.444c-2.897,0-4.929-0.216-7.137-0.822V7.611h3.242v10.901c0,1.21-0.127,2.854-0.389,3.936
			l0.086,0.042c1.212-3.243,3.979-5.191,7.354-5.191c5.062,0,7.916,3.504,7.916,10.166C46.603,35.12,42.276,39.444,35.53,39.444z
			 M38.038,19.983c-4.325,0-6.402,5.017-6.402,8.823v7.524c1.256,0.39,2.553,0.562,4.196,0.562c4.457,0,7.354-2.683,7.354-9.17
			C43.186,22.88,41.584,19.983,38.038,19.983z"/>
		<path fill="#005092" d="M63.771,39.573c-5.752,0-9.473-3.503-9.473-11.027c0-6.143,3.808-11.247,10.252-11.247
			c5.232,0,9.514,2.899,9.514,10.771C74.064,34.47,70.129,39.573,63.771,39.573z M64.249,19.983c-3.374,0-6.574,2.551-6.574,8.304
			c0,5.492,2.377,8.52,6.574,8.52c3.374,0,6.444-2.596,6.444-8.52C70.693,23.098,68.53,19.983,64.249,19.983z"/>
		<path fill="#005092" d="M91.105,39.573c-5.751,0-9.471-3.503-9.471-11.027c0-6.143,3.806-11.247,10.25-11.247
			c5.231,0,9.514,2.899,9.514,10.771C101.398,34.47,97.463,39.573,91.105,39.573z M91.583,19.983c-3.373,0-6.576,2.551-6.576,8.304
			c0,5.492,2.38,8.52,6.576,8.52c3.371,0,6.44-2.596,6.44-8.52C98.023,23.098,95.864,19.983,91.583,19.983z"/>
		<path fill="#005092" d="M114.661,39.573c-1.601,0-3.243-0.172-4.54-0.432l0.086-2.983c1.383,0.388,3.114,0.691,4.803,0.691
			c3.111,0,5.273-1.386,5.273-3.633c0-5.19-10.464-1.945-10.464-9.601c0-3.591,2.94-6.317,8.389-6.317
			c1.341,0,2.857,0.217,4.195,0.479l-0.087,2.81c-1.426-0.475-2.983-0.735-4.454-0.735c-3.157,0-4.715,1.3-4.715,3.418
			c0,5.146,10.511,2.204,10.511,9.516C123.658,36.59,120.283,39.573,114.661,39.573z"/>
		<path fill="#005092" d="M42.051,69.071V55.188c0-3.245-0.778-5.364-3.894-5.364c-3.288,0-6.443,3.417-6.443,8.996v10.251h-3.199
			V55.143c0-2.939-0.606-5.318-3.895-5.318c-3.545,0-6.444,3.719-6.444,8.996v10.251h-3.243V47.576h3.199
			c0,1.383-0.086,3.415-0.345,4.758l0.086,0.043c1.212-3.156,4.024-5.233,7.57-5.233c4.888,0,5.925,3.503,6.012,5.145
			c0.776-2.033,3.113-5.145,7.482-5.145c4.021,0,6.355,2.161,6.355,7.006v14.922H42.051z"/>
		<path fill="#005092" d="M63.771,69.46c-5.752,0-9.473-3.504-9.473-11.029c0-6.143,3.808-11.246,10.252-11.246
			c5.234,0,9.516,2.899,9.516,10.771C74.066,64.355,70.129,69.46,63.771,69.46z M64.249,49.867c-3.374,0-6.574,2.553-6.574,8.305
			c0,5.492,2.377,8.52,6.574,8.52c3.374,0,6.444-2.595,6.444-8.52C70.693,52.982,68.53,49.867,64.249,49.867z"/>
		<path fill="#005092" d="M91.105,69.46c-5.751,0-9.471-3.504-9.471-11.029c0-6.143,3.806-11.246,10.25-11.246
			c5.231,0,9.514,2.899,9.514,10.771C101.398,64.355,97.463,69.46,91.105,69.46z M91.583,49.867c-3.373,0-6.576,2.553-6.576,8.305
			c0,5.492,2.38,8.52,6.576,8.52c3.373,0,6.44-2.595,6.44-8.52C98.023,52.982,95.864,49.867,91.583,49.867z"/>
		<path fill="#005092" d="M117.889,80.358c-5.453,0-8.952-2.204-8.952-6.315c0-2.68,1.686-4.669,3.717-5.708
			c-1.339-0.606-2.163-1.73-2.163-3.113c0-1.472,0.866-2.811,2.381-3.504c-2.162-1.255-3.202-3.459-3.202-6.229
			c0-4.498,3.505-8.305,9.344-8.305c1.21,0,2.118,0.132,3.243,0.392h7.309v2.552h-3.89c1.251,0.993,2.072,2.681,2.072,4.713
			c0,4.586-3.155,8.089-9.341,8.089c-0.995,0-2.162-0.132-2.939-0.304c-1.082,0.389-1.601,1.17-1.601,1.946
			c0,1.255,1.209,1.816,3.891,1.816h4.196c4.671,0,7.223,2.293,7.223,6.056C129.176,76.984,124.505,80.358,117.889,80.358z
			 M121.046,69.199h-4.413c-0.432,0-0.994,0-1.382-0.042c-1.861,0.952-3.071,2.511-3.071,4.326c0,2.767,2.68,4.237,6.269,4.237
			c4.715,0,7.484-1.989,7.484-4.844C125.933,70.584,124.332,69.199,121.046,69.199z M118.838,49.695
			c-3.719,0-5.924,2.291-5.924,5.447c0,3.504,2.119,5.364,5.752,5.364c3.545,0,5.839-1.902,5.839-5.364
			C124.505,51.685,122.387,49.695,118.838,49.695z"/>
	</g>
	<polygon fill="#005092" points="145,43.037 105.489,43.037 105.489,0 104.988,0 104.988,43.037 78.059,43.037 78.059,0 77.559,0 
		77.559,43.037 50.63,43.037 50.63,0 50.129,0 50.129,43.037 0,43.037 0,43.537 50.129,43.537 50.129,87.711 50.63,87.711 
		50.63,43.537 77.559,43.537 77.559,87.711 78.059,87.711 78.059,43.537 104.988,43.537 104.988,87.711 105.489,87.711 
		105.489,43.537 145,43.537 	"/>
</g>
</svg>
